# xmcd
#
# Track frame offsets: 
#        150
#        12359
#        33233
#        56362
#        69367
#        83475
#        97579
#        113544
#        124877
#        139484
#
# Disc length: 2024 seconds
#
# Revision: 0
# Processed by: cddbd v1.5.2PL0 Copyright (c) Steve Scherf et al.
# Submitted via: ExactAudioCopy v0.95b4
#
DISCID=7207e60a
DTITLE=Michael Paul - It's Cowboy Time
DYEAR=2007
DGENRE=Country
TTITLE0=It's Cowboy Time
TTITLE1=More Than Love
TTITLE2=I Are An Angel
TTITLE3=Never Was A Cowboy
TTITLE4=She's A Dancer
TTITLE5=Five Head Blues
TTITLE6=In Between Romance
TTITLE7=Rocket Planes and Baseball Games
TTITLE8=Step Back
TTITLE9=It's Harley Time
EXTD=
EXTT0=
EXTT1=
EXTT2=
EXTT3=
EXTT4=
EXTT5=
EXTT6=
EXTT7=
EXTT8=
EXTT9=
PLAYORDER=
